<?xml version="1.0" standalone="no"?>
<!DOCTYPE svg PUBLIC "-//W3C//DTD SVG 20010904//EN"
 "http://www.w3.org/TR/2001/REC-SVG-20010904/DTD/svg10.dtd">
<svg version="1.0" xmlns="http://www.w3.org/2000/svg"
 width="280.000000pt" height="280.000000pt" viewBox="0 0 280.000000 280.000000"
 preserveAspectRatio="xMidYMid meet">
<metadata>
Created by potrace 1.14, written by Peter Selinger 2001-2017
</metadata>
<g transform="translate(0.000000,280.000000) scale(0.100000,-0.100000)"
fill="#000000" stroke="none">
<path d="M1273 2592 c-15 -8 -33 -21 -41 -28 -7 -8 -18 -14 -23 -14 -17 0 -9
-29 14 -45 12 -9 128 -79 257 -156 250 -149 270 -156 291 -102 11 29 3 100
-13 121 -6 6 -8 12 -4 12 29 0 -239 167 -338 211 -51 22 -101 22 -143 1z"/>
<path d="M897 2589 c-195 -29 -233 -291 -56 -383 40 -20 123 -20 172 2 42 19
67 16 87 -7 3 -3 19 -13 35 -21 17 -8 37 -19 45 -26 8 -6 42 -26 75 -45 33
-18 73 -40 88 -48 16 -9 36 -20 45 -26 9 -5 44 -26 77 -45 88 -50 102 -67 119
-140 24 -101 22 -114 -29 -164 -25 -25 -45 -49 -45 -54 0 -5 13 -15 28 -21 25
-11 36 -21 77 -78 11 -15 18 -11 64 38 29 30 58 65 65 79 15 28 15 311 1 345
-12 27 -49 63 -77 75 -13 6 -45 24 -73 40 -27 16 -61 35 -75 41 -13 5 -27 13
-30 17 -3 4 -21 15 -40 25 -19 9 -53 28 -75 42 -22 13 -59 34 -82 47 -24 12
-43 25 -43 29 0 3 -8 9 -17 13 -10 3 -36 17 -58 30 -33 20 -41 31 -47 66 -19
112 -120 185 -231 169z m117 -97 c42 -38 61 -123 34 -150 -7 -7 -9 -12 -5 -12
13 0 -28 -42 -55 -56 -15 -8 -43 -14 -63 -14 -99 0 -154 91 -116 193 27 69
145 92 205 39z"/>
<path d="M1975 2473 c-58 -24 -101 -71 -118 -129 -23 -80 -4 -150 60 -211 l34
-33 -1 -280 c-1 -310 -3 -319 -65 -361 -19 -13 -35 -28 -35 -32 0 -4 -15 -14
-33 -22 -27 -11 -41 -11 -87 1 -77 20 -77 20 -77 -37 -1 -35 -7 -60 -21 -79
l-21 -28 32 -7 c18 -4 37 -9 42 -11 13 -4 52 -12 92 -20 28 -5 51 4 150 61
132 74 163 98 180 136 8 18 11 106 11 275 0 433 -3 397 35 417 17 10 46 38 63
62 65 94 34 230 -67 286 -13 7 -27 14 -31 15 -5 1 -9 2 -10 4 -14 11 -100 6
-133 -7z m121 -62 c37 -4 84 -76 84 -126 0 -95 -106 -163 -188 -121 -59 31
-86 91 -70 155 19 75 76 105 174 92z"/>
<path d="M699 2194 c-13 -7 -27 -10 -31 -8 -5 3 -8 1 -8 -3 0 -5 -19 -17 -42
-28 -24 -10 -45 -21 -48 -24 -6 -7 -34 -23 -93 -54 -23 -12 -48 -27 -55 -34
-7 -7 -17 -13 -21 -13 -12 0 -67 -53 -80 -77 -14 -28 -14 -136 0 -150 8 -8 27
-2 69 23 32 18 68 38 81 44 13 5 56 28 94 50 39 22 95 52 125 67 30 15 57 30
60 34 3 3 23 14 45 24 56 26 75 44 75 73 0 50 -120 104 -171 76z"/>
<path d="M2278 2134 c-4 -3 -7 -99 -8 -212 -1 -114 -3 -248 -5 -298 -4 -100 3
-121 45 -127 46 -8 124 62 135 120 3 19 5 109 4 201 -2 174 -11 224 -50 263
-31 31 -109 65 -121 53z"/>
<path d="M914 1943 c-55 -31 -117 -66 -139 -79 -22 -13 -111 -63 -199 -111
l-159 -86 -41 15 c-49 18 -122 16 -163 -6 -64 -32 -114 -115 -113 -186 1 -54
57 -158 86 -159 5 -1 15 -6 22 -13 23 -23 98 -32 150 -18 79 21 139 95 149
184 2 22 7 42 11 44 4 1 115 63 247 137 254 143 266 147 340 119 22 -8 48 -17
59 -19 34 -8 53 -35 71 -101 16 -58 19 -63 34 -51 27 22 70 37 106 37 19 0 35
3 35 8 0 4 -10 41 -21 82 -22 75 -62 130 -95 130 -8 0 -14 5 -14 10 0 6 -4 10
-10 10 -5 0 -38 17 -72 38 -143 86 -158 86 -284 15z m-553 -328 c64 -36 90
-104 65 -169 -21 -53 -59 -80 -114 -82 -83 -3 -137 48 -137 131 0 60 23 97 75
119 35 15 85 16 111 1z"/>
<path d="M953 1547 c-23 -12 -65 -35 -95 -51 -29 -16 -63 -34 -75 -40 -13 -6
-23 -14 -23 -18 0 -5 -6 -8 -12 -8 -7 0 -24 -17 -38 -37 -24 -36 -25 -42 -27
-222 0 -102 -3 -252 -4 -333 l-3 -147 -40 -33 c-126 -104 -91 -295 63 -348 94
-31 189 5 236 92 24 43 32 101 23 148 -8 33 -51 96 -80 115 l-31 21 2 284 c2
284 2 285 26 320 14 19 38 44 55 55 16 11 30 23 30 28 0 4 11 12 25 17 24 9
45 7 142 -15 19 -5 21 -1 21 39 0 25 8 61 17 81 10 19 16 37 14 39 -6 5 -150
36 -168 36 -9 0 -35 -10 -58 -23z m-128 -930 c94 -50 87 -205 -12 -238 -121
-39 -222 71 -168 184 29 62 117 88 180 54z"/>
<path d="M1309 1538 c-82 -75 -92 -109 -62 -206 20 -64 42 -81 122 -98 86 -17
125 2 185 90 21 32 23 41 14 78 -5 24 -11 51 -13 61 -13 60 -73 96 -171 103
-34 2 -47 -3 -75 -28z"/>
<path d="M2412 1445 c-27 -13 -61 -38 -74 -56 -26 -35 -50 -94 -42 -102 2 -2
-2 -9 -9 -16 -27 -22 -473 -272 -496 -278 -14 -3 -43 -1 -65 6 -23 6 -48 13
-56 16 -8 2 -15 4 -15 5 0 1 -8 3 -18 5 -32 6 -47 26 -67 96 l-21 68 -33 -20
c-19 -11 -54 -22 -77 -25 -24 -3 -45 -7 -47 -9 -2 -1 8 -41 22 -87 26 -83 38
-101 86 -126 44 -22 137 -77 151 -88 48 -40 137 -51 182 -21 14 9 28 17 31 17
2 0 42 23 88 51 46 28 155 92 243 141 l159 89 46 -24 c58 -31 117 -34 173 -9
57 25 84 52 109 109 74 167 -103 335 -270 258z m148 -66 c133 -72 58 -273 -92
-245 -123 22 -140 201 -24 251 41 17 75 16 116 -6z"/>
<path d="M418 1267 c-64 -49 -70 -77 -65 -297 4 -191 5 -200 25 -237 12 -21
131 -88 140 -78 3 2 6 80 8 172 2 92 6 229 8 303 4 113 2 138 -11 153 -24 26
-56 21 -105 -16z"/>
<path d="M1135 1237 c-97 -104 -92 -89 -93 -249 0 -79 2 -156 5 -171 9 -47 90
-116 176 -148 15 -6 27 -15 27 -19 0 -4 11 -11 25 -14 14 -4 25 -11 25 -17 0
-6 4 -8 9 -5 5 3 14 -1 21 -9 7 -8 17 -15 22 -15 6 0 29 -13 52 -28 22 -15 48
-31 56 -35 8 -4 29 -16 45 -27 17 -11 38 -23 48 -26 9 -4 17 -10 17 -15 0 -5
6 -9 13 -9 28 0 58 -38 61 -77 2 -21 8 -50 14 -64 14 -36 71 -99 88 -99 8 0
14 -4 14 -10 0 -5 3 -9 8 -8 4 1 26 -2 49 -6 91 -17 199 49 220 134 26 104 -2
182 -82 235 -16 10 -37 21 -45 24 -31 9 -119 4 -151 -9 -25 -11 -34 -11 -37
-2 -2 7 -10 12 -17 12 -8 0 -20 6 -27 13 -18 16 -66 44 -100 58 -16 6 -28 15
-28 20 0 5 -6 9 -14 9 -8 0 -22 7 -30 16 -9 8 -16 13 -16 9 0 -5 -49 23 -60
35 -3 3 -16 11 -30 18 -56 29 -85 45 -90 51 -3 3 -17 12 -31 19 -34 18 -54 55
-69 127 -6 33 -13 67 -16 76 -2 9 18 40 50 74 l54 59 -37 19 c-21 11 -49 36
-63 57 l-24 38 -39 -41z m789 -742 c29 -19 56 -72 56 -109 0 -100 -122 -168
-207 -115 -35 21 -65 85 -60 124 14 101 127 155 211 100z"/>
<path d="M2451 989 c-13 -5 -36 -18 -52 -30 -16 -11 -29 -17 -29 -12 0 4 -4 4
-8 -2 -4 -5 -25 -19 -47 -30 -22 -11 -42 -22 -45 -25 -3 -4 -23 -15 -45 -27
-103 -53 -130 -68 -135 -73 -3 -3 -30 -18 -60 -33 -94 -48 -107 -65 -83 -107
31 -54 157 -77 202 -36 9 9 20 16 24 16 4 0 44 23 91 50 47 28 87 50 91 50 3
0 11 5 18 10 7 6 30 23 53 39 54 38 76 86 71 152 -5 60 -14 70 -46 58z"/>
<path d="M1037 563 c-20 -24 -22 -38 -14 -99 9 -63 27 -81 173 -167 161 -95
209 -117 250 -117 40 0 98 24 132 55 22 20 22 22 5 36 -10 9 -110 71 -223 139
-113 68 -220 134 -239 147 -41 28 -63 29 -84 6z"/>
</g>
</svg>
